<svg width="18" height="18" viewBox="0 0 18 18" fill="none" xmlns="http://www.w3.org/2000/svg">
<path d="M16.5 8.99997C16.5 13.1421 13.1421 16.5 9 16.5C4.85785 16.5 1.5 13.1421 1.5 8.99997C1.5 4.85782 4.85785 1.49997 9 1.49997C13.1421 1.49997 16.5 4.85782 16.5 8.99997ZM8.13248 12.9712L13.697 7.40664C13.8859 7.21769 13.8859 6.91131 13.697 6.72236L13.0127 6.03807C12.8238 5.84909 12.5174 5.84909 12.3284 6.03807L7.79032 10.5761L5.6716 8.4574C5.48265 8.26845 5.17627 8.26845 4.98729 8.4574L4.303 9.14168C4.11405 9.33063 4.11405 9.63702 4.303 9.82597L7.44817 12.9711C7.63715 13.1601 7.9435 13.1601 8.13248 12.9712Z" fill="#1F8EFF"/>
</svg>
