<svg width="24" height="24" viewBox="0 0 24 24" fill="none" xmlns="http://www.w3.org/2000/svg">
<path d="M10.75 14.3807V20.5015L11.6101 21.7914C11.7957 22.0695 12.2047 22.0695 12.3902 21.7914L13.25 20.5015V14.3807C12.8441 14.4557 12.4273 14.5002 12 14.5002C11.5726 14.5002 11.1558 14.4557 10.75 14.3807ZM12 2C8.89329 2 6.37488 4.51841 6.37488 7.62511C6.37488 10.7318 8.89329 13.2502 12 13.2502C15.1067 13.2502 17.6251 10.7318 17.6251 7.62511C17.6251 4.51841 15.1067 2 12 2ZM12 4.96881C10.5351 4.96881 9.34369 6.16024 9.34369 7.62511C9.34369 7.88371 9.13353 8.09387 8.87493 8.09387C8.61633 8.09387 8.40617 7.88371 8.40617 7.62511C8.40617 5.64343 10.0187 4.03129 12 4.03129C12.2586 4.03129 12.4687 4.24145 12.4687 4.50005C12.4687 4.75865 12.2586 4.96881 12 4.96881Z" fill="#5C777D"/>
</svg>
