<svg width="31" height="31" viewBox="0 0 31 31" fill="none" xmlns="http://www.w3.org/2000/svg">
<g clip-path="url(#clip0_3_114)">
<path d="M12.9842 21.8412L8.69798 27.0608C8.09491 27.7951 8.38303 28.9042 9.26725 29.2522L13.4577 30.9015C14.3617 31.2573 15.3444 30.6068 15.3701 29.6357L15.5508 22.7985C15.5872 21.4203 13.8592 20.7758 12.9842 21.8412Z" fill="#DC0000"/>
<path d="M12.2721 16.6525L5.91542 14.3702C5.02103 14.0491 4.07341 14.6932 4.04288 15.643L3.89822 20.144C3.86698 21.1151 4.80997 21.822 5.73326 21.5196L12.2332 19.3915C13.5436 18.9625 13.5697 17.1184 12.2721 16.6525Z" fill="#DC0000"/>
<path d="M19.5574 17.3849L26.0686 15.5902C26.9847 15.3378 27.3885 14.2655 26.8666 13.4713L24.3929 9.70825C23.8593 8.89648 22.6813 8.86154 22.1006 9.64037L18.0119 15.1233C17.1877 16.2285 18.2283 17.7513 19.5574 17.3849Z" fill="#DC0000"/>
<path d="M14.842 1.73848C14.8938 0.612321 13.8327 -0.237243 12.7451 0.0597737L7.59119 1.46729C6.47933 1.77093 6.00712 3.08694 6.67224 4.02823L12.5867 14.2749C12.6347 14.3581 12.6876 14.4388 12.7499 14.512C13.6258 15.5413 15.2701 15.1599 15.6755 13.9549C15.7482 13.7385 15.7687 13.5078 15.7508 13.2801L14.842 1.73848Z" fill="#DC0000"/>
<path d="M26.1127 22.0688L19.5744 20.0612C18.2565 19.6565 17.1722 21.1484 17.9641 22.2771L21.843 27.8061C22.3887 28.584 23.5344 28.6039 24.1068 27.8453L26.8193 24.2507C27.4045 23.4752 27.0414 22.354 26.1127 22.0688Z" fill="#DC0000"/>
</g>
<defs>
<clipPath id="clip0_3_114">
<rect width="31" height="31" fill="white"/>
</clipPath>
</defs>
</svg>
